
        <svg xmlns="http://www.w3.org/2000/svg" xmlns:xlink="http://www.w3.org/1999/xlink" version="1.1" width="3184.6153846153843" 
        height="867.6923076923076" viewBox="0 0 3184.6153846153843 867.6923076923076">
			<rect fill="#111111" width="3184.6153846153843" height="867.6923076923076"/>
			<g transform="scale(9.23076923076923) translate(10, 10)">
				<defs id="SvgjsDefs3572"><linearGradient id="SvgjsLinearGradient3581"><stop id="SvgjsStop3582" stop-color="#8f5e25" offset="0"></stop><stop id="SvgjsStop3583" stop-color="#fbf4a1" offset="0.5"></stop><stop id="SvgjsStop3584" stop-color="#8f5e25" offset="1"></stop></linearGradient><linearGradient id="SvgjsLinearGradient3585"><stop id="SvgjsStop3586" stop-color="#8f5e25" offset="0"></stop><stop id="SvgjsStop3587" stop-color="#fbf4a1" offset="0.5"></stop><stop id="SvgjsStop3588" stop-color="#8f5e25" offset="1"></stop></linearGradient><linearGradient id="SvgjsLinearGradient3589"><stop id="SvgjsStop3590" stop-color="#8f5e25" offset="0"></stop><stop id="SvgjsStop3591" stop-color="#fbf4a1" offset="0.5"></stop><stop id="SvgjsStop3592" stop-color="#8f5e25" offset="1"></stop></linearGradient><linearGradient id="SvgjsLinearGradient3593"><stop id="SvgjsStop3594" stop-color="#8f5e25" offset="0"></stop><stop id="SvgjsStop3595" stop-color="#fbf4a1" offset="0.5"></stop><stop id="SvgjsStop3596" stop-color="#8f5e25" offset="1"></stop></linearGradient></defs><g id="SvgjsG3573" featureKey="symbolFeature-0" transform="matrix(0.8719495411890418,0,0,0.8719495411890418,3.0840844361843227,-0.03216437365132041)" fill="url(#SvgjsLinearGradient3581)"><g xmlns="http://www.w3.org/2000/svg"><g><path fill="url(#SvgjsLinearGradient3581)" d="M44.873,2.446c-13.465-5.813-21.469,9.813-14.12,19.163C32.176,11.937,38.708,7.375,44.873,2.446z     M14.616,23.626c-3.472,1.906-4.914,5.843-9.077,7.059c1.598,7.577-4.641,14.246,2.017,8.068v-7.059    c6.161-3.368,10.435-13.613,20.171-10.086c-3.051-4.271-1.041-13.372-2.017-17.146c-5.202,1.443-10.108,6.544-7.061,13.111    c-5.634-3.014-17.388,1.233-16.137,5.043C4.809,20.716,13.539,20.96,14.616,23.626z M13.945,38.753c0,0,2.877-4.601,7.313-6.975    c0.824-0.441-7.985,0-7.985,0L13.945,38.753z M33.779,21.608c5.575-7.2,14.416-11.136,27.232-11.094    C53.39-4.303,31.962,11.711,33.779,21.608z M67.063,36.737c-3.7-10.131-18.396-13.015-32.274-11.095    c27.511,6.801-4.269,35.25,0,49.421c2.032,6.749,15.094,11.283,26.222,7.06c-23.024-4.493,1.187-45.024-15.128-53.454    c20.691,5.66-2.267,41.805,13.11,44.377c-4.249-2.781-3.641-5.699-3.049-7.016C61.257,56.311,71.668,49.348,67.063,36.737z     M35.797,22.617c18.77-3.389,33.964,4.848,36.309,21.18C86.421,15.989,49.034,5.956,35.797,22.617z M34.789,28.668    c8.168,10.069,2.536,26.342-14.122,23.196c1.136,2.898,0.205,7.865,2.019,10.086c1.627-6.438,6.64-9.498,16.137-8.069    C42.995,47.099,43.974,30.482,34.789,28.668z M17.585,68.788c-0.096,0.069-0.242,0.198-0.446,0.399    c-0.604,0.459-1.363,0.763-2.371,0.815c-0.081-0.014-0.158-0.03-0.234-0.05c-0.535-0.438-3.771-3.168-3.961-5.483    c0.149-0.22,0.389-0.449,0.781-0.614c0.038-0.011,0.073-0.022,0.111-0.034c2.338-0.229,3.041,1.177,5.169,1.154    c-0.603-1.795,2.955-4.188,0-5.041c-5.859,6.5-18.003-1.564-12.103-10.086c-3.632-0.27-4.86,1.864-8.068,2.017    c6.749,9.724,14.194,18.75,25.213,24.207c-1.135-2.9-0.203-7.866-2.016-10.086C18.963,66.914,18.403,67.981,17.585,68.788z"></path></g></g></g><g id="SvgjsG3574" featureKey="textGroupContainer" transform="matrix(1,0,0,1,324,0)" fill="url(#SvgjsLinearGradient3585)"><rect xmlns="http://www.w3.org/2000/svg" y="0" height="1" width="1" opacity="0"></rect><rect xmlns="http://www.w3.org/2000/svg" y="0" x="-235" width="5" height="74"></rect></g><g id="SvgjsG3575" featureKey="nameFeature-0" transform="matrix(1.0424267662032378,0,0,1.0424267662032378,106.06181630807134,12.995623576348066)" fill="url(#SvgjsLinearGradient3589)"><path d="M12.96 18.5 c-1.24 1.12 -2.9 1.7 -4.76 1.7 c-3.92 0 -7.3 -2.94 -7.3 -7.2 s3.38 -7.2 7.3 -7.2 c1.84 0 3.48 0.6 4.68 1.66 l-1.76 1.98 c-0.74 -0.52 -1.74 -0.9 -2.76 -0.9 c-2.52 0 -4.42 1.86 -4.42 4.46 s1.9 4.46 4.42 4.46 c1.06 0 2.1 -0.4 2.86 -1 z M17.78 17.32 l5.5 0 l0 2.68 l-8.42 0 l0 -14 l2.92 0 l0 11.32 z M32.239999999999995 5.800000000000001 c3.9 0 7.26 2.94 7.26 7.2 s-3.36 7.2 -7.26 7.2 s-7.26 -2.94 -7.26 -7.2 s3.36 -7.2 7.26 -7.2 z M32.239999999999995 17.46 c2.36 0 4.22 -1.86 4.22 -4.46 s-1.86 -4.46 -4.22 -4.46 s-4.22 1.86 -4.22 4.46 s1.86 4.46 4.22 4.46 z M51.099999999999994 6 l0 2.68 l-3.48 0 l0 11.32 l-2.92 0 l0 -11.32 l-3.5 0 l0 -2.68 l9.9 0 z M61.66 6 l2.92 0 l0 14 l-2.92 0 l0 -5.66 l-5.64 0 l0 5.66 l-2.92 0 l0 -14 l2.92 0 l0 5.66 l5.64 0 l0 -5.66 z M69.9 6 l0 14 l-2.92 0 l0 -14 l2.92 0 z M81.46 6 l2.92 0 l0 14 l-2.22 0 l-6.94 -8.68 l0 8.68 l-2.92 0 l0 -14 l2.26 0 l6.9 8.7 l0 -8.7 z M99.96 12.559999999999999 c0.62 4.7 -2.44 7.64 -6.22 7.64 c-3.98 0 -7.26 -2.94 -7.26 -7.2 s3.36 -7.2 7.26 -7.2 c1.86 0 3.5 0.6 4.7 1.66 l-1.76 1.98 c-0.74 -0.52 -1.74 -0.9 -2.76 -0.9 c-2.54 0 -4.4 1.86 -4.4 4.46 s1.8 4.46 4.22 4.46 c1.84 0 3.12 -0.66 3.52 -2.42 l-3.3 0 l0 -2.48 l6 0 z M112.7 5.76 c2.46 0 4.02 1.54 4.76 2.9 l-2.16 1.28 c-0.76 -1.06 -1.5 -1.6 -2.6 -1.6 c-0.98 0 -1.7 0.58 -1.7 1.38 s0.46 1.22 1.56 1.62 l0.96 0.34 c3.1 1.1 4.32 2.48 4.32 4.4 c0 2.82 -2.68 4.22 -5.06 4.22 c-2.52 0 -4.48 -1.5 -5.16 -3.46 l2.24 -1.18 c0.5 1.02 1.34 2 2.92 2 c1.14 0 2.02 -0.5 2.02 -1.54 c0 -1 -0.6 -1.44 -2.12 -2.02 l-0.86 -0.3 c-2.06 -0.74 -3.72 -1.76 -3.72 -4.2 c0 -2.24 2.1 -3.84 4.6 -3.84 z M134.74 6 l0 14 l-3 0 l0 -7.44 l-3.26 7.44 l-2.52 0 l-3.22 -7.4 l0 7.4 l-3 0 l0 -14 l2.88 0 l4.62 10.1 l4.62 -10.1 l2.88 0 z M144.1 5.800000000000001 c3.9 0 7.26 2.94 7.26 7.2 s-3.36 7.2 -7.26 7.2 s-7.26 -2.94 -7.26 -7.2 s3.36 -7.2 7.26 -7.2 z M144.1 17.46 c2.36 0 4.22 -1.86 4.22 -4.46 s-1.86 -4.46 -4.22 -4.46 s-4.22 1.86 -4.22 4.46 s1.86 4.46 4.22 4.46 z M160.42 5.800000000000001 c3.9 0 7.26 2.94 7.26 7.2 s-3.36 7.2 -7.26 7.2 s-7.26 -2.94 -7.26 -7.2 s3.36 -7.2 7.26 -7.2 z M160.42 17.46 c2.36 0 4.22 -1.86 4.22 -4.46 s-1.86 -4.46 -4.22 -4.46 s-4.22 1.86 -4.22 4.46 s1.86 4.46 4.22 4.46 z M179.27999999999997 6 l0 2.68 l-3.48 0 l0 11.32 l-2.92 0 l0 -11.32 l-3.5 0 l0 -2.68 l9.9 0 z M189.83999999999997 6 l2.92 0 l0 14 l-2.92 0 l0 -5.66 l-5.64 0 l0 5.66 l-2.92 0 l0 -14 l2.92 0 l0 5.66 l5.64 0 l0 -5.66 z"></path></g><g id="SvgjsG3576" featureKey="sloganFeature-0" transform="matrix(0.7611798397856162,0,0,0.7611798397856162,106.23881997873497,40.46812745981737)" fill="url(#SvgjsLinearGradient3593)"><path d="M13.8 15.46 q0 1.46 -0.88 2.6 q-0.86 1.08 -2.37 1.68 t-3.41 0.6 q-1.74 0 -3.38 -0.81 t-2.76 -2.25 l1.56 -1.46 q1.94 2.34 4.58 2.34 q1.16 0 2.12 -0.28 q1.06 -0.32 1.64 -0.9 q0.66 -0.64 0.66 -1.52 q0 -1.06 -0.66 -1.6 q-0.56 -0.46 -1.66 -0.6 q-0.64 -0.08 -2.1 -0.08 q-2.68 0 -4.09 -0.98 t-1.41 -2.88 q0 -1.2 0.71 -2.28 t1.95 -1.72 q1.28 -0.68 2.84 -0.68 q1.76 0 3.18 0.54 q1.52 0.58 2.82 1.82 l-1.36 1.6 q-1.22 -0.98 -2.22 -1.37 t-2.42 -0.39 q-0.82 0 -1.53 0.34 t-1.13 0.91 t-0.42 1.21 q0 1.72 3.18 1.72 q2.54 0 4.02 0.52 q1.4 0.5 2 1.52 q0.54 0.9 0.54 2.4 z M19.16 13.4 l0 6.6 l-2.16 0 l0 -14.92 l2.16 0 l0 6.12 q0.8 -0.4 1.9 -0.4 q0.4 0 1.94 0.18 q2.16 0.26 2.92 0.26 q1.16 0 2.02 -0.38 l0 -5.78 l2.18 0 l0 14.92 l-2.18 0 l0 -6.94 q-0.86 0.38 -2.02 0.38 q-0.76 0 -2.92 -0.26 q-1.54 -0.18 -1.94 -0.18 q-1.1 0 -1.9 0.4 z M47.42 12.440000000000001 q0 -1.6 -0.82 -2.9 q-0.78 -1.26 -2.13 -1.98 t-2.93 -0.72 q-1.64 0 -2.99 0.74 t-2.11 2.02 q-0.78 1.34 -0.78 2.98 q0 1.56 0.84 2.88 q0.8 1.24 2.15 1.97 t2.92 0.73 t2.92 -0.76 t2.13 -2.04 q0.8 -1.34 0.8 -2.92 z M49.58 12.559999999999999 q0 2.16 -1.12 3.98 q-1.08 1.74 -2.93 2.77 t-3.99 1.03 q-2.22 0 -4.08 -1.08 q-1.82 -1.04 -2.86 -2.86 q-1.08 -1.86 -1.08 -4.08 q0 -2.14 1.14 -3.94 q1.08 -1.72 2.93 -2.73 t3.97 -1.01 q2.18 0 4.04 1.06 q1.82 1.04 2.88 2.82 q1.1 1.86 1.1 4.04 z M58 11.46 l2.64 0 q2.2 0 2.2 -2.12 q0 -1.1 -0.55 -1.59 t-1.65 -0.49 l-5.48 0 l0 4.8 q0.62 -0.36 1.4 -0.5 q0.58 -0.1 1.44 -0.1 z M55.160000000000004 20 l-2.18 0 l0 -14.92 l7.66 0 q1.32 0 2.3 0.51 t1.52 1.47 t0.54 2.27 t-0.54 2.29 t-1.53 1.51 t-2.29 0.53 l-2.64 0 q-1.72 0 -2.84 0.6 l0 5.74 z M67 18.76 q0 -0.5 0.34 -0.85 t0.84 -0.35 t0.85 0.35 t0.35 0.85 t-0.35 0.84 t-0.85 0.34 t-0.84 -0.34 t-0.34 -0.84 z M85.36 7 l-1.4 1.64 q-0.82 -0.84 -1.96 -1.32 t-2.4 -0.48 q-1.64 0 -2.99 0.74 t-2.11 2.02 q-0.78 1.34 -0.78 2.98 q0 1.56 0.84 2.88 q0.8 1.24 2.15 1.97 t2.91 0.73 q1.44 0 2.68 -0.62 t2.06 -1.72 l1.34 1.82 q-1.14 1.28 -2.73 1.99 t-3.37 0.71 q-2.22 0 -4.08 -1.08 q-1.82 -1.04 -2.86 -2.86 q-1.08 -1.86 -1.08 -4.08 q0 -2.14 1.14 -3.94 q1.08 -1.72 2.93 -2.73 t3.97 -1.01 q1.66 0 3.16 0.64 q1.46 0.6 2.58 1.72 z M99.35999999999999 20 l-10.46 0 l0 -14.92 l2.18 0 l0 12.74 l8.28 0 l0 2.18 z M104.1 20 l-2.14 0 l0 -14.92 l2.14 0 l0 14.92 z M121.28 7 l-1.4 1.64 q-0.82 -0.84 -1.96 -1.32 t-2.4 -0.48 q-1.64 0 -2.99 0.74 t-2.11 2.02 q-0.78 1.34 -0.78 2.98 q0 1.56 0.84 2.88 q0.8 1.24 2.15 1.97 t2.91 0.73 q1.44 0 2.68 -0.62 t2.06 -1.72 l1.34 1.82 q-1.14 1.28 -2.73 1.99 t-3.37 0.71 q-2.22 0 -4.08 -1.08 q-1.82 -1.04 -2.86 -2.86 q-1.08 -1.86 -1.08 -4.08 q0 -2.14 1.14 -3.94 q1.08 -1.72 2.93 -2.73 t3.97 -1.01 q1.66 0 3.16 0.64 q1.46 0.6 2.58 1.72 z M131.02 14.02 l-4.02 5.98 l-2.18 0 l0 -14.92 l2.18 0 l0 11.14 l7.58 -11.14 l2.62 0 l-4.9 7.02 l2.68 4.02 q0.64 0.96 1.26 1.36 q0.5 0.32 1.06 0.32 l0.62 -0.02 l0 2.22 l-0.4 0 q-1 0.02 -1.46 -0.08 q-0.74 -0.12 -1.36 -0.6 q-0.7 -0.56 -1.42 -1.68 z M140.12 18.76 q0 -0.5 0.34 -0.85 t0.84 -0.35 t0.85 0.35 t0.35 0.85 t-0.35 0.84 t-0.85 0.34 t-0.84 -0.34 t-0.34 -0.84 z M157.3 15.46 q0 1.46 -0.88 2.6 q-0.86 1.08 -2.37 1.68 t-3.41 0.6 q-1.74 0 -3.38 -0.81 t-2.76 -2.25 l1.56 -1.46 q1.94 2.34 4.58 2.34 q1.16 0 2.12 -0.28 q1.06 -0.32 1.64 -0.9 q0.66 -0.64 0.66 -1.52 q0 -1.06 -0.66 -1.6 q-0.56 -0.46 -1.66 -0.6 q-0.64 -0.08 -2.1 -0.08 q-2.68 0 -4.09 -0.98 t-1.41 -2.88 q0 -1.2 0.71 -2.28 t1.95 -1.72 q1.28 -0.68 2.84 -0.68 q1.76 0 3.18 0.54 q1.52 0.58 2.82 1.82 l-1.36 1.6 q-1.22 -0.98 -2.22 -1.37 t-2.42 -0.39 q-0.82 0 -1.53 0.34 t-1.13 0.91 t-0.42 1.21 q0 1.72 3.18 1.72 q2.54 0 4.02 0.52 q1.4 0.5 2 1.52 q0.54 0.9 0.54 2.4 z M173.24 9.74 l-5.1 6.1 l-5.06 -6.1 l0 10.26 l-2.14 0 l0 -12.82 l-1.74 -2.1 l2.82 0 l6.1 7.32 l6.18 -7.32 l2.82 0 l-1.74 2.1 l0 12.82 l-2.14 0 l0 -10.26 z M182.36 20 l-2.14 0 l0 -14.92 l2.14 0 l0 14.92 z M197.22 20 l-10.46 0 l0 -14.92 l2.18 0 l0 12.74 l8.28 0 l0 2.18 z M202 14.02 l0 3.8 l9.2 0 l0 2.18 l-11.38 0 l0 -14.92 l10.5 0 l0 2.2 l-8.32 0 l0 4.52 q0.62 -0.36 1.38 -0.48 q0.56 -0.1 1.44 -0.1 l3.26 0 l0 2.22 l-3.26 0 q-0.82 0 -1.44 0.1 q-0.76 0.14 -1.38 0.48 z"></path></g>
			</g>
		</svg>
	